<svg xmlns="http://www.w3.org/2000/svg" viewBox="0 0 512 512" role="img" aria-label="SundhedMCP">
  <defs>
    <linearGradient id="chip" x1="0" y1="0" x2="0.6" y2="1"><stop offset="0" stop-color="#6b2a6e"/><stop offset="0.45" stop-color="#b8456f"/><stop offset="0.75" stop-color="#e0566f"/><stop offset="1" stop-color="#ff9a5a"/></linearGradient>
    <linearGradient id="gloss" x1="0" y1="0" x2="0" y2="1"><stop offset="0" stop-color="#fff" stop-opacity="0.5"/><stop offset="0.5" stop-color="#fff" stop-opacity="0"/></linearGradient>
    <linearGradient id="heart" x1="0.2" y1="0" x2="0.8" y2="1"><stop offset="0" stop-color="#ffffff"/><stop offset="1" stop-color="#fdf1f4"/></linearGradient>
    <linearGradient id="shine" x1="0" y1="0" x2="0" y2="1"><stop offset="0" stop-color="#fff" stop-opacity="0.45"/><stop offset="0.55" stop-color="#fff" stop-opacity="0"/></linearGradient>
    <filter id="soft" x="-30%" y="-30%" width="160%" height="160%"><feDropShadow dx="0" dy="8" stdDeviation="12" flood-color="#2a1537" flood-opacity="0.3"/></filter>
  </defs>
  <rect width="512" height="512" rx="114" fill="url(#chip)"/>
  <rect width="512" height="512" rx="114" fill="url(#gloss)"/>
  <rect x="3" y="3" width="506" height="506" rx="111" fill="none" stroke="rgba(255,255,255,0.35)" stroke-width="6"/>
  <g transform="translate(256 262) scale(0.9) translate(-256 -262)">
    <path d="M256 372C168 314 132 268 132 222c0-40 30-70 68-70 24 0 44 12 56 32 12-20 32-32 56-32 38 0 68 30 68 70 0 46-36 92-124 150z" fill="url(#heart)" filter="url(#soft)"/>
    <path d="M256 372C168 314 132 268 132 222c0-40 30-70 68-70 24 0 44 12 56 32 12-20 32-32 56-32 38 0 68 30 68 70 0 46-36 92-124 150z" fill="url(#shine)"/>
  </g>
</svg>
